<svg id="Layer_1" data-name="Layer 1" xmlns="http://www.w3.org/2000/svg" viewBox="0 0 96.3 96.69">
  <defs>
    <style>
      .cls-1 {
        fill: red;
      }
    </style>
  </defs>
  <path d="M2.12,39.53C13.82,30,22.41,22.63,22.41,16.67c0-4-2.49-5.82-6.37-5.82-3.25,0-5.82,2.08-8.17,4.16L1.56,8.64C6.34,3.79,10.78,1.57,17.7,1.57c9.42,0,16,5.68,16,14.41,0,7.07-7.34,14.82-14.54,20.92,2.42-.28,5.75-.55,7.89-.55h8.87v10H2.12Z" transform="translate(-1.56 -1.57)"/>
  <path d="M63,40.92l5.4-7.48a16.27,16.27,0,0,0,10,4.15c4.29,0,7.34-1.38,7.34-4.15,0-3.33-2.42-5.27-12.19-5.27V19.86c7.9,0,10.81-1.94,10.81-5,0-2.63-2.08-4-5.55-4-3.18,0-5.68,1.25-8.72,3.6l-6-7.2A24,24,0,0,1,79.3,1.57C89.41,1.57,96.2,6,96.2,14c0,4.23-2.84,7.41-8,9.49v.28c5.41,1.52,9.42,5,9.42,10.53,0,8.31-8.52,12.88-18,12.88C72.09,47.15,66.41,44.8,63,40.92Z" transform="translate(-1.56 -1.57)"/>
  <path class="cls-1" d="M3.85,85l9.56-9.56L3.85,65.91,9.74,60l9.56,9.56L28.85,60l5.89,5.89-9.56,9.56L34.74,85l-5.89,5.89L19.3,81.36,9.74,90.92Z" transform="translate(-1.56 -1.57)"/>
  <path d="M64.06,91.47c11.7-9.56,20.29-16.9,20.29-22.86,0-4-2.49-5.82-6.37-5.82-3.25,0-5.82,2.08-8.17,4.16l-6.3-6.37c4.77-4.85,9.21-7.07,16.13-7.07,9.42,0,16,5.68,16,14.41,0,7.07-7.34,14.82-14.54,20.92,2.42-.28,5.75-.55,7.9-.55h8.86v10H64.06Z" transform="translate(-1.56 -1.57)"/>
</svg>
